<svg xmlns="http://www.w3.org/2000/svg" xmlns:xlink="http://www.w3.org/1999/xlink" width="242.282" height="242.282" viewBox="0 0 242.282 242.282">
  <defs>
    <clipPath id="clip-path">
      <rect id="Rectangle_586" data-name="Rectangle 586" width="122.756" height="122.756" transform="translate(0 0)" fill="#fff" stroke="#707070" stroke-width="1"/>
    </clipPath>
  </defs>
  <g id="Group_125" data-name="Group 125" transform="translate(2362.911 -5364.919)">
    <g id="Component_5_17" data-name="Component 5 – 17" transform="translate(-2362.911 5364.919)">
      <circle id="Ellipse_2" data-name="Ellipse 2" cx="121.141" cy="121.141" r="121.141" transform="translate(0 0)" fill="#c42d2d"/>
    </g>
    <g id="Mask_Group_40" data-name="Mask Group 40" transform="translate(-2307.993 5424.144)" clip-path="url(#clip-path)">
      <g id="blinds" transform="translate(0.199 -0.335)">
        <path id="Path_334" data-name="Path 334" d="M118.612,0H4.09A4.094,4.094,0,0,0,0,4.09V18.406A4.094,4.094,0,0,0,4.09,22.5H6.7L.27,33.751a2.045,2.045,0,0,0,1.776,3.06H6.7L.27,48.066a2.045,2.045,0,0,0,1.776,3.059H6.7L.27,62.382a2.045,2.045,0,0,0,1.776,3.059H6.7L.27,76.7a2.045,2.045,0,0,0,1.776,3.059H6.7L.27,91.012a2.046,2.046,0,0,0,1.776,3.06H6.7L.27,105.327a2.045,2.045,0,0,0,1.776,3.059H6.7L.27,119.643A2.045,2.045,0,0,0,2.046,122.7H120.657a2.045,2.045,0,0,0,1.776-3.059L116,108.387h4.655a2.045,2.045,0,0,0,1.776-3.059L116,94.072h4.655a2.046,2.046,0,0,0,1.776-3.06L116,79.757h4.655a2.045,2.045,0,0,0,1.776-3.059L116,65.441h4.655a2.045,2.045,0,0,0,1.776-3.059L116,51.126h4.655a2.045,2.045,0,0,0,1.776-3.059L116,36.811h4.655a2.045,2.045,0,0,0,1.776-3.06L116,22.5h2.611a4.1,4.1,0,0,0,4.09-4.09V4.09A4.1,4.1,0,0,0,118.613,0ZM11.412,22.5H22.5V32.721H5.569Zm76.525,0V32.721H34.766V22.5Zm16.36,0V32.721h-4.09V22.5ZM34.766,104.3V94.072H87.937V104.3Zm53.171,4.09v10.226H34.766V108.387Zm0-61.351H34.766V36.811H87.937Zm4.09-10.225h4.09V47.036h-4.09ZM34.765,75.667V65.441H87.936V75.667Zm53.171,4.09V89.981H34.765V79.757ZM34.765,61.351V51.126H87.936V61.351Zm-4.09-14.316h-4.09V36.811h4.09Zm0,4.09V61.351h-4.09V51.126Zm0,14.316V75.667h-4.09V65.441Zm0,14.316V89.981h-4.09V79.757Zm0,14.316V104.3h-4.09V94.072Zm61.351,0h4.09V104.3h-4.09Zm0-4.091V79.757h4.09V89.981Zm0-14.315V65.441h4.09V75.667Zm0-14.316V51.126h4.09V61.351Zm8.18-10.226h4.09V61.351h-4.09Zm0-4.09V36.811h4.09V47.036Zm-4.09-14.315h-4.09V22.5h4.09Zm-65.441,0h-4.09V22.5h4.09Zm-19.264,4.09H22.5V47.036H5.569Zm0,14.315H22.5V61.351H5.569Zm0,14.316H22.5V75.667H5.569Zm0,14.316H22.5V89.981H5.569Zm0,14.316H22.5V104.3H5.569Zm0,14.315H22.5v10.225H5.569Zm15.174,10.225V108.387h4.09v10.225Zm65.441,0V108.387h4.09v10.225Zm25.106,0H100.207V108.387h11.084Zm0-14.316H100.207V94.072h11.084Zm0-14.316H100.207V79.757h11.084Zm0-14.315H100.207V65.441h4.09v4.09a2.045,2.045,0,1,0,4.09,0v-4.09h2.9Zm0-14.316h-8.745V51.126h2.9Zm0-14.316h-8.745V36.811h2.9Zm0-14.315h-8.745V22.5h2.9Zm-4.655-14.316H4.09V4.09H118.612l0,14.316Zm0,0" transform="translate(0 0)" fill="#fff"/>
        <path id="Path_335" data-name="Path 335" d="M11.8,7.084H7.712a2.045,2.045,0,1,0,0,4.09H11.8a2.045,2.045,0,0,0,0-4.09Zm0,0" transform="translate(2.513 3.142)" fill="#fff"/>
        <path id="Path_336" data-name="Path 336" d="M28.482,7.084H16.212a2.045,2.045,0,1,0,0,4.09h12.27a2.045,2.045,0,1,0,0-4.09Zm0,0" transform="translate(6.283 3.142)" fill="#fff"/>
      </g>
    </g>
  </g>
</svg>
