<svg xmlns="http://www.w3.org/2000/svg" xmlns:xlink="http://www.w3.org/1999/xlink" width="242.282" height="242.282" viewBox="0 0 242.282 242.282">
  <defs>
    <clipPath id="clip-path">
      <rect id="Rectangle_557" data-name="Rectangle 557" width="122.702" height="122.702" fill="#fff" stroke="#707070" stroke-width="1"/>
    </clipPath>
  </defs>
  <g id="Group_129" data-name="Group 129" transform="translate(878.563 -4993.03)">
    <g id="Component_5_9" data-name="Component 5 – 9" transform="translate(-878.563 4993.03)">
      <circle id="Ellipse_2" data-name="Ellipse 2" cx="121.141" cy="121.141" r="121.141" transform="translate(0 0)" fill="#ececec"/>
    </g>
    <g id="Mask_Group_33" data-name="Mask Group 33" transform="translate(-814.296 5050.451)" clip-path="url(#clip-path)">
      <g id="pillows" transform="translate(0 10.818)">
        <g id="Group_91" data-name="Group 91" transform="translate(0 0)">
          <g id="Group_90" data-name="Group 90">
            <path id="Path_314" data-name="Path 314" d="M102.434,54.056c-3.388-5.346-6.986-15.938-8.086-20.213-1.213-4.249-3.482-15.29-3.228-21.506a4.48,4.48,0,0,0-1.9-3.976,4.875,4.875,0,0,0-4.756-.453c-8.618,4.117-30.252,11.447-39.271,13.87-8.5,2.281-31.1,7.059-40.961,7.86a4.493,4.493,0,0,0-3.7,2.448A4.728,4.728,0,0,0,.744,36.8C3.9,41.585,7.375,51.49,8.943,56.98c1.215,4.25,3.483,15.29,3.23,21.507a4.481,4.481,0,0,0,1.9,3.976,4.766,4.766,0,0,0,2.755.866,5.036,5.036,0,0,0,2-.415C27.452,78.8,49.084,71.466,58.1,69.044c8.521-2.288,31.1-7.07,40.812-7.857a4.5,4.5,0,0,0,3.722-2.449A4.714,4.714,0,0,0,102.434,54.056Zm-3.319,2.861a.551.551,0,0,1-.494.316c-9.954.807-32.9,5.662-41.548,7.984C47.921,67.674,25.923,75.135,17.2,79.3a.843.843,0,0,1-.83-.077.533.533,0,0,1-.239-.529c.279-6.8-2.061-18.208-3.375-22.807C11.344,50.964,7.714,40.18,4.083,34.667a.775.775,0,0,1-.04-.766.54.54,0,0,1,.466-.313h.028C14.606,32.771,37.6,27.92,46.218,25.6c9.155-2.459,31.155-9.92,39.877-14.088a.908.908,0,0,1,.35-.074.86.86,0,0,1,.48.149.529.529,0,0,1,.238.529c-.277,6.8,2.062,18.208,3.362,22.756,1.178,4.572,4.9,15.513,8.55,21.275A.775.775,0,0,1,99.114,56.917Z" transform="translate(0 -7.494)"/>
          </g>
        </g>
        <g id="Group_93" data-name="Group 93" transform="translate(11.748 29.93)">
          <g id="Group_92" data-name="Group 92">
            <path id="Path_315" data-name="Path 315" d="M21.03,29.68A1.978,1.978,0,0,0,18.591,28.3a17.957,17.957,0,0,1-5.767-.049,2.021,2.021,0,0,0-.437-.02,4.494,4.494,0,0,0-3.721,2.448,4.71,4.71,0,0,0,.186,4.658c.026.044.065.1.094.14a5.33,5.33,0,0,1,.944,3.236,1.98,1.98,0,0,0,1.761,2.177,1.882,1.882,0,0,0,.21.011,1.981,1.981,0,0,0,1.967-1.769A9.16,9.16,0,0,0,12.2,33.221a.772.772,0,0,1-.013-.721.544.544,0,0,1,.327-.289,20.81,20.81,0,0,0,7.138-.093A1.981,1.981,0,0,0,21.03,29.68Z" transform="translate(-8.138 -28.227)"/>
          </g>
        </g>
        <g id="Group_95" data-name="Group 95" transform="translate(71.847 15.723)">
          <g id="Group_94" data-name="Group 94">
            <path id="Path_316" data-name="Path 316" d="M73.662,33.843c-2.6-6.552-10.637-18.1-22.426-14.913a1.98,1.98,0,1,0,1.031,3.824c11.317-3.062,17.457,11.913,17.714,12.552a1.981,1.981,0,0,0,3.681-1.463Z" transform="translate(-49.77 -18.386)"/>
          </g>
        </g>
        <g id="Group_97" data-name="Group 97" transform="translate(38.31 45.243)">
          <g id="Group_96" data-name="Group 96">
            <path id="Path_317" data-name="Path 317" d="M54.939,38.954a1.976,1.976,0,0,0-2.536,1.19C49.847,47.226,33.8,54.557,27.827,56.786a1.981,1.981,0,0,0,.693,3.837,1.96,1.96,0,0,0,.69-.125c2.371-.883,23.279-8.929,26.918-19.007A1.978,1.978,0,0,0,54.939,38.954Z" transform="translate(-26.539 -38.835)"/>
          </g>
        </g>
        <g id="Group_99" data-name="Group 99" transform="translate(19.941 44.714)">
          <g id="Group_98" data-name="Group 98">
            <path id="Path_318" data-name="Path 318" d="M116.13,43.638a4.722,4.722,0,0,0-3.669-2.643c-.046-.005-.09-.011-.135-.013-4.183-.271-10.983-1.406-17.081-2.482a1.98,1.98,0,1,0-.688,3.9c6.165,1.088,13.049,2.238,17.428,2.53a.742.742,0,0,1,.567.409.671.671,0,0,1-.057.671c-3.639,5.878-7.282,16.854-8.424,21.424-1.234,4.942-3.5,16.053-3.224,22.8a.542.542,0,0,1-.225.512.669.669,0,0,1-.642.078c-9.158-4.375-31.392-11.692-39.976-14-8.622-2.188-31.552-6.893-41.552-7.7a.748.748,0,0,1-.615-.416.679.679,0,0,1,.059-.676c.029-.049.058-.1.085-.152.1-.21.238-.417.368-.626.2-.321.4-.642.556-.961a1.981,1.981,0,1,0-3.545-1.769c-.106.213-.239.421-.371.631-.182.292-.363.585-.514.877a4.655,4.655,0,0,0-.219,4.374,4.765,4.765,0,0,0,3.772,2.657c9.526.772,32.293,5.394,40.973,7.6,8.434,2.267,30.3,9.456,39.343,13.772a4.824,4.824,0,0,0,1.9.395,4.578,4.578,0,0,0,2.668-.853,4.474,4.474,0,0,0,1.891-3.957c-.238-5.79,1.73-16.1,3.111-21.62,1.277-5.112,4.843-15.282,7.951-20.3A4.651,4.651,0,0,0,116.13,43.638Z" transform="translate(-13.814 -38.468)"/>
          </g>
        </g>
        <g id="Group_101" data-name="Group 101" transform="translate(98.384 55.675)">
          <g id="Group_100" data-name="Group 100">
            <path id="Path_319" data-name="Path 319" d="M70.647,46.128a1.981,1.981,0,1,0-1.023,3.828c11.453,3.062,9.216,19.031,9.116,19.71a1.982,1.982,0,0,0,1.666,2.251,1.9,1.9,0,0,0,.3.023,1.979,1.979,0,0,0,1.956-1.685C83.708,63.3,82.55,49.31,70.647,46.128Z" transform="translate(-68.154 -46.061)"/>
          </g>
        </g>
        <g id="Group_103" data-name="Group 103" transform="translate(45.969 76.802)">
          <g id="Group_102" data-name="Group 102">
            <path id="Path_320" data-name="Path 320" d="M66.484,61.384a1.979,1.979,0,0,0-2.793-.206c-5.7,4.906-23.246,3.146-29.528,2.058a1.98,1.98,0,0,0-.678,3.9,95.984,95.984,0,0,0,15.16,1.318c6.628,0,13.739-.922,17.633-4.279A1.98,1.98,0,0,0,66.484,61.384Z" transform="translate(-31.844 -60.697)"/>
          </g>
        </g>
      </g>
    </g>
  </g>
</svg>
