<svg xmlns="http://www.w3.org/2000/svg" xmlns:xlink="http://www.w3.org/1999/xlink" width="43" height="37" viewBox="0 0 43 37">
  <defs>
    <clipPath id="clip-path">
      <rect id="Rectangle_62" data-name="Rectangle 62" width="43" height="37" transform="translate(373 3478)" fill="#fff" stroke="#707070" stroke-width="1"/>
    </clipPath>
  </defs>
  <g id="Mask_Group_30" data-name="Mask Group 30" transform="translate(-373 -3478)" clip-path="url(#clip-path)">
    <g id="phone-call" transform="translate(376 3478)">
      <g id="Group_80" data-name="Group 80">
        <path id="Path_306" data-name="Path 306" d="M29.242,22.92A3.639,3.639,0,0,0,26.6,21.71a3.763,3.763,0,0,0-2.671,1.2l-2.468,2.46c-.2-.109-.406-.211-.6-.312-.281-.141-.547-.273-.773-.414a26.82,26.82,0,0,1-6.427-5.857,15.823,15.823,0,0,1-2.108-3.327c.64-.586,1.234-1.195,1.812-1.78.219-.219.437-.445.656-.664a3.583,3.583,0,0,0,0-5.4L11.89,5.482c-.242-.242-.492-.492-.726-.742C10.7,4.256,10.2,3.757,9.7,3.288A3.7,3.7,0,0,0,7.079,2.14,3.825,3.825,0,0,0,4.424,3.288L4.409,3.3,1.754,5.982A5.713,5.713,0,0,0,.059,9.613a13.689,13.689,0,0,0,1,5.794,33.624,33.624,0,0,0,5.974,9.964,36.749,36.749,0,0,0,12.237,9.582,19.066,19.066,0,0,0,6.872,2.03c.164.008.336.016.492.016a5.884,5.884,0,0,0,4.506-1.937c.008-.016.023-.023.031-.039a17.753,17.753,0,0,1,1.367-1.413c.336-.32.679-.656,1.015-1.007a3.9,3.9,0,0,0,1.179-2.7,3.753,3.753,0,0,0-1.2-2.679Zm2.8,8.223c-.008,0-.008.008,0,0-.3.328-.617.625-.953.953a20.533,20.533,0,0,0-1.507,1.562A3.765,3.765,0,0,1,26.641,34.9c-.117,0-.242,0-.359-.008a16.937,16.937,0,0,1-6.091-1.827A34.689,34.689,0,0,1,8.665,24.037a31.7,31.7,0,0,1-5.623-9.363,11.15,11.15,0,0,1-.875-4.889A3.585,3.585,0,0,1,3.245,7.466L5.908,4.8A1.775,1.775,0,0,1,7.1,4.249a1.67,1.67,0,0,1,1.14.547l.023.023c.476.445.929.906,1.406,1.4.242.25.492.5.742.757l2.132,2.132a1.49,1.49,0,0,1,0,2.421c-.226.226-.445.453-.672.672-.656.672-1.281,1.3-1.96,1.905-.016.016-.031.023-.039.039a1.593,1.593,0,0,0-.406,1.773l.023.07A17.116,17.116,0,0,0,12.007,20.1l.008.008a28.662,28.662,0,0,0,6.934,6.31,10.662,10.662,0,0,0,.961.523c.281.141.547.273.773.414.031.016.062.039.094.055a1.693,1.693,0,0,0,.773.2,1.67,1.67,0,0,0,1.187-.539L25.407,24.4a1.767,1.767,0,0,1,1.179-.586,1.59,1.59,0,0,1,1.125.57l.016.016,4.3,4.3A1.544,1.544,0,0,1,32.037,31.143Z" fill="#c42d2d"/>
        <path id="Path_307" data-name="Path 307" d="M20,8.8a10.05,10.05,0,0,1,8.184,8.184,1.048,1.048,0,0,0,1.039.875,1.394,1.394,0,0,0,.18-.016,1.055,1.055,0,0,0,.867-1.218,12.152,12.152,0,0,0-9.9-9.9,1.06,1.06,0,0,0-1.218.859A1.043,1.043,0,0,0,20,8.8Z" fill="#c42d2d"/>
        <path id="Path_308" data-name="Path 308" d="M36.957,16.321A20.01,20.01,0,0,0,20.652.016a1.053,1.053,0,1,0-.344,2.077A17.873,17.873,0,0,1,34.88,16.665a1.048,1.048,0,0,0,1.039.875,1.394,1.394,0,0,0,.18-.016A1.035,1.035,0,0,0,36.957,16.321Z" fill="#c42d2d"/>
      </g>
    </g>
  </g>
</svg>
