<svg xmlns="http://www.w3.org/2000/svg" xmlns:xlink="http://www.w3.org/1999/xlink" width="80" height="80" viewBox="0 0 80 80">
  <defs>
    <clipPath id="clip-path">
      <rect id="Rectangle_501" data-name="Rectangle 501" width="80" height="80" transform="translate(481 1423)" fill="#fff" stroke="#707070" stroke-width="1"/>
    </clipPath>
  </defs>
  <g id="Mask_Group_15" data-name="Mask Group 15" transform="translate(-481 -1423)" clip-path="url(#clip-path)">
    <g id="rating" transform="translate(481 1423)">
      <path id="Path_242" data-name="Path 242" d="M39.478,77.655H36.214c-4.9,0-7.948-1.441-7.948-3.761V54.426c3.145-1.841,5.5-4.912,7-9.141a1.172,1.172,0,0,0-2.209-.786A14.733,14.733,0,0,1,28.1,51.731a3.744,3.744,0,0,0-3.573-2.642H21.237A3.741,3.741,0,0,0,17.5,52.826V63.852a1.172,1.172,0,1,0,2.345,0V52.826a1.394,1.394,0,0,1,1.392-1.392h3.292a1.394,1.394,0,0,1,1.392,1.392V76.263a1.394,1.394,0,0,1-1.392,1.392H21.237a1.394,1.394,0,0,1-1.392-1.392V69.28a1.172,1.172,0,0,0-2.345,0v6.983A3.741,3.741,0,0,0,21.237,80h3.292a3.742,3.742,0,0,0,3.378-2.141C29.369,79.041,31.888,80,36.214,80h3.264a1.172,1.172,0,0,0,0-2.345Z"/>
      <path id="Path_243" data-name="Path 243" d="M64.246,56.632a3.5,3.5,0,0,0,.279-1.373V52.606a3.521,3.521,0,0,0-3.517-3.517H49.591a4.928,4.928,0,0,1-4.78-5.862l.867-4.649a7.7,7.7,0,0,0-4.147-8.3,3.227,3.227,0,0,0-4.387,1.832L34.712,39.33a1.172,1.172,0,1,0,2.222.749l2.433-7.222a.813.813,0,0,1,.462-.5.8.8,0,0,1,.667.021,5.351,5.351,0,0,1,2.877,5.768L42.507,42.8a7.308,7.308,0,0,0,5.109,8.366,4.831,4.831,0,0,0,.792,6.419,4.834,4.834,0,0,0,0,7.383,4.834,4.834,0,0,0-.1,7.211,4.434,4.434,0,0,0-1.037,5.479H44.907a1.172,1.172,0,1,0,0,2.345H59.361a3.312,3.312,0,0,0,3.308-3.308V74.422a3.284,3.284,0,0,0-.294-1.357,3.846,3.846,0,0,0,2.151-3.449v-2a3.819,3.819,0,0,0-.38-1.665,3.849,3.849,0,0,0,2.719-3.674v-2a3.849,3.849,0,0,0-2.619-3.641Zm-2.066-4.025v2.652a1.174,1.174,0,0,1-1.172,1.172H51.586a2.5,2.5,0,0,1,0-5h9.423A1.173,1.173,0,0,1,62.181,52.606Zm-1.5,13.511a1.5,1.5,0,0,1,1.5,1.5v2a1.5,1.5,0,0,1-1.5,1.5h-9.1a2.5,2.5,0,1,1,0-5h9.1Zm-.359,10.574a.965.965,0,0,1-.963.963H51.185a2.1,2.1,0,0,1,0-4.2c.33,0,7.773,0,8.176,0a.965.965,0,0,1,.963.963Zm4.2-14.416a1.5,1.5,0,0,1-1.5,1.5H51.538a2.5,2.5,0,0,1,0-5H63.022a1.5,1.5,0,0,1,1.5,1.5Z"/>
      <path id="Path_244" data-name="Path 244" d="M31.543,17.87l-1.285,7.494a2.092,2.092,0,0,0,3.006,2.184l6.73-3.538,6.73,3.538a2.1,2.1,0,0,0,3.006-2.184L48.444,17.87l5.445-5.307a2.107,2.107,0,0,0-1.148-3.534L45.216,7.935,41.852,1.117a2.1,2.1,0,0,0-3.716,0L34.771,7.935,27.247,9.028A2.1,2.1,0,0,0,26.1,12.562Zm3.707-7.635A2.072,2.072,0,0,0,36.81,9.1l3.184-6.451L43.178,9.1a2.072,2.072,0,0,0,1.56,1.133l7.119,1.034-5.151,5.021a2.07,2.07,0,0,0-.6,1.834l1.216,7.09-6.368-3.348a2.073,2.073,0,0,0-1.928,0l-6.367,3.348,1.216-7.09a2.071,2.071,0,0,0-.6-1.834l-5.151-5.021Z"/>
      <path id="Path_245" data-name="Path 245" d="M75.975,16.066a1.741,1.741,0,0,0-1.414-1.192l-4.63-.673-2.071-4.2a1.779,1.779,0,0,0-3.142,0l-2.071,4.2-4.63.673a1.777,1.777,0,0,0-.971,2.988l3.35,3.266-.791,4.611a1.783,1.783,0,0,0,2.542,1.847l4.141-2.177,4.141,2.177a1.79,1.79,0,0,0,2.542-1.847l-.791-4.611,3.35-3.266a1.741,1.741,0,0,0,.443-1.8Zm-5.653,3.6a1.751,1.751,0,0,0-.5,1.551l.64,3.734L67.1,23.188a1.752,1.752,0,0,0-1.63,0l-3.353,1.763.641-3.734a1.752,1.752,0,0,0-.5-1.55l-2.713-2.645,3.75-.545a1.752,1.752,0,0,0,1.319-.958l1.677-3.4,1.677,3.4a1.751,1.751,0,0,0,1.319.959l3.749.545Z"/>
      <path id="Path_246" data-name="Path 246" d="M18.643,27.788a1.812,1.812,0,0,0,1.725-2.05l-.791-4.611,3.35-3.266a1.787,1.787,0,0,0-.971-2.988l-4.63-.673-2.071-4.195a1.779,1.779,0,0,0-3.142,0l-2.071,4.2-4.63.673a1.777,1.777,0,0,0-.971,2.988l3.35,3.266L7,25.738a1.783,1.783,0,0,0,2.542,1.847l4.141-2.177,4.141,2.177a1.751,1.751,0,0,0,.817.2Zm-4.958-4.8a1.753,1.753,0,0,0-.815.2L9.516,24.951l.641-3.734a1.752,1.752,0,0,0-.5-1.55L6.94,17.021l3.75-.545a1.751,1.751,0,0,0,1.319-.958l1.677-3.4,1.677,3.4a1.751,1.751,0,0,0,1.319.958l3.749.545-2.713,2.644a1.751,1.751,0,0,0-.5,1.551l.64,3.734L14.5,23.187a1.75,1.75,0,0,0-.815-.2Z"/>
    </g>
  </g>
</svg>
