<svg xmlns="http://www.w3.org/2000/svg" xmlns:xlink="http://www.w3.org/1999/xlink" width="242.282" height="242.282" viewBox="0 0 242.282 242.282">
  <defs>
    <clipPath id="clip-path">
      <rect id="Rectangle_569" data-name="Rectangle 569" width="122.702" height="122.702" fill="#fff" stroke="#707070" stroke-width="1"/>
    </clipPath>
  </defs>
  <g id="Group_132" data-name="Group 132" transform="translate(881.333 -5364.919)">
    <g id="Component_5_12" data-name="Component 5 – 12" transform="translate(-881.333 5364.919)">
      <circle id="Ellipse_2" data-name="Ellipse 2" cx="121.141" cy="121.141" r="121.141" transform="translate(0 0)" fill="#ececec"/>
    </g>
    <g id="Mask_Group_36" data-name="Mask Group 36" transform="translate(-820.296 5423.808)" clip-path="url(#clip-path)">
      <g id="curtains">
        <g id="Group_104" data-name="Group 104">
          <path id="Path_324" data-name="Path 324" d="M120.146,0H2.556A2.555,2.555,0,0,0,0,2.556V12.782a2.555,2.555,0,0,0,2.556,2.556H5.113V120.146A2.555,2.555,0,0,0,7.669,122.7c3.4,0,5.133-1.982,6.4-3.428,1.116-1.273,1.56-1.685,2.559-1.685s1.44.412,2.556,1.685c1.268,1.445,3,3.428,6.4,3.428s5.2-2.065,6.4-3.43c1.111-1.271,1.555-1.683,2.546-1.683s1.428.412,2.539,1.683c1.191,1.366,2.993,3.43,6.386,3.43a2.557,2.557,0,0,0,2.287-3.7L26.277,80.069A46.238,46.238,0,0,0,44.156,51.341l6.546-36H72l6.546,36A46.233,46.233,0,0,0,96.423,80.067L76.949,118.91a2.84,2.84,0,0,0-.235,1.588,2.556,2.556,0,0,0,2.531,2.2c3.4,0,5.133-1.982,6.4-3.428,1.116-1.273,1.56-1.685,2.559-1.685s1.44.412,2.556,1.685c1.268,1.445,3,3.428,6.4,3.428s5.2-2.065,6.4-3.43c1.111-1.271,1.555-1.683,2.546-1.683s1.428.412,2.539,1.683c1.191,1.366,2.993,3.43,6.386,3.43a2.555,2.555,0,0,0,2.556-2.556V15.338h2.556a2.555,2.555,0,0,0,2.556-2.556V2.556A2.555,2.555,0,0,0,120.146,0ZM36.967,112.879a7.244,7.244,0,0,0-2.434-.4c-3.4,0-5.2,2.065-6.4,3.43-1.111,1.271-1.555,1.683-2.549,1.683s-1.443-.412-2.559-1.685c-1.268-1.445-3-3.428-6.4-3.428s-5.135,1.982-6.4,3.428V79.953a35.9,35.9,0,0,0,11.189,1.824Zm2.162-62.452A41.074,41.074,0,0,1,22.2,76.667c-6.073-.118-11.448-1.456-11.971-2.534v-58.8H45.508Zm73.349,65.458c-1.193-1.366-2.993-3.408-6.368-3.408-3.4,0-5.2,2.065-6.4,3.43-1.111,1.271-1.555,1.683-2.549,1.683s-1.443-.412-2.559-1.685c-1.268-1.445-3-3.428-6.4-3.428a7.35,7.35,0,0,0-2.524.422l15.6-31.122a35.909,35.909,0,0,0,11.192-1.824v35.931Zm0-41.792c-.568,1.126-5.92,2.456-11.971,2.574a41.073,41.073,0,0,1-16.932-26.24l-6.38-35.089h35.283Zm5.113-63.868H5.113V5.113H117.59v5.113Z"/>
        </g>
      </g>
    </g>
  </g>
</svg>
